<svg xmlns="http://www.w3.org/2000/svg" xmlns:xlink="http://www.w3.org/1999/xlink" xmlns:lucid="lucid" width="589" height="1018.05"><g transform="translate(177.32563076715093 -141.38918235121776)" lucid:page-tab-id="0_0"><path d="M-149.87 167.9a6 6 0 0 1 6-6h367.33a6 6 0 0 1 6 6v58.85a6 6 0 0 1-6 6h-367.33a6 6 0 0 1-6-6z" stroke="#3a414a" fill="#fbf0ff"/><use xlink:href="#a" transform="matrix(1,0,0,1,-137.87037789300808,173.88918235121776) translate(83.06172839506172 17.77777777777778)"/><use xlink:href="#b" transform="matrix(1,0,0,1,-137.87037789300808,173.88918235121776) translate(105.28395061728395 17.77777777777778)"/><use xlink:href="#c" transform="matrix(1,0,0,1,-137.87037789300808,173.88918235121776) translate(175.53086419753083 17.77777777777778)"/><use xlink:href="#d" transform="matrix(1,0,0,1,-137.87037789300808,173.88918235121776) translate(63.49382716049387 44.44444444444444)"/><path d="M47.33 312.75a6 6 0 0 1 6-6h303.3a6 6 0 0 1 6 6v56.85a6 6 0 0 1-6 6H53.33a6 6 0 0 1-6-6z" stroke="#3a414a" fill="#e3fae3"/><use xlink:href="#e" transform="matrix(1,0,0,1,59.33203933458961,318.7515406575334) translate(103.65432098765433 17.77777777777778)"/><use xlink:href="#f" transform="matrix(1,0,0,1,59.33203933458961,318.7515406575334) translate(128.3456790123457 17.77777777777778)"/><use xlink:href="#g" transform="matrix(1,0,0,1,59.33203933458961,318.7515406575334) translate(26.49382716049385 44.44444444444444)"/><path d="M-156.83 768.9a6 6 0 0 1 6-6h374.3a6 6 0 0 1 6 6v65.34a6 6 0 0 1-6 6h-374.3a6 6 0 0 1-6-6z" stroke="#3a414a" fill="#fbf0ff"/><use xlink:href="#h" transform="matrix(1,0,0,1,-144.82563076715093,774.9107196942028) translate(88.38271604938271 21.15277777777778)"/><use xlink:href="#i" transform="matrix(1,0,0,1,-144.82563076715093,774.9107196942028) translate(113.07407407407406 21.15277777777778)"/><use xlink:href="#c" transform="matrix(1,0,0,1,-144.82563076715093,774.9107196942028) translate(177.20987654320987 21.15277777777778)"/><use xlink:href="#j" transform="matrix(1,0,0,1,-144.82563076715093,774.9107196942028) translate(68.19753086419755 47.81944444444444)"/><path d="M34.44 455.6a6 6 0 0 1 6-6h329.08a6 6 0 0 1 6 6v61.86a6 6 0 0 1-6 6H40.44a6 6 0 0 1-6-6z" stroke="#3a414a" fill="#e3fae3"/><use xlink:href="#k" transform="matrix(1,0,0,1,46.4438232717724,461.60099080725536) translate(15.388888888888886 30.27777777777778)"/><use xlink:href="#l" transform="matrix(1,0,0,1,46.4438232717724,461.60099080725536) translate(40.08024691358024 30.27777777777778)"/><use xlink:href="#i" transform="matrix(1,0,0,1,46.4438232717724,461.60099080725536) translate(101.62345679012346 30.27777777777778)"/><use xlink:href="#m" transform="matrix(1,0,0,1,46.4438232717724,461.60099080725536) translate(165.75925925925927 30.27777777777778)"/><use xlink:href="#n" transform="matrix(1,0,0,1,46.4438232717724,461.60099080725536) translate(231.12962962962965 30.27777777777778)"/><use xlink:href="#o" transform="matrix(1,0,0,1,46.4438232717724,461.60099080725536) translate(255.82098765432102 30.27777777777778)"/><path d="M47.33 916.77a6 6 0 0 1 6-6h303.3a6 6 0 0 1 6 6v66.74a6 6 0 0 1-6 6H53.33a6 6 0 0 1-6-6z" stroke="#3a414a" fill="#e3fae3"/><use xlink:href="#p" transform="matrix(1,0,0,1,59.33203933458972,922.7664265904648) translate(111.70987654320987 21.21527777777778)"/><use xlink:href="#q" transform="matrix(1,0,0,1,59.33203933458972,922.7664265904648) translate(136.40123456790124 21.21527777777778)"/><use xlink:href="#g" transform="matrix(1,0,0,1,59.33203933458972,922.7664265904648) translate(26.49382716049385 47.88194444444444)"/><path d="M204.98 376.6v56.12" stroke="#000" stroke-linejoin="round" fill="none"/><path d="M205.48 376.6h-1v-.5h1z" stroke="#000" stroke-width=".05"/><path d="M204.98 447.48l-4.63-14.26h9.27z" stroke="#000"/><path d="M-149.87 1077.14a6 6 0 0 1 6-6h358.94a6 6 0 0 1 6 6v55.8a6 6 0 0 1-6 6h-358.94a6 6 0 0 1-6-6z" stroke="#3a414a" fill="#fbf0ff"/><use xlink:href="#r" transform="matrix(1,0,0,1,-137.87037789300808,1083.1413615986232) translate(67.51234567901236 26.02777777777778)"/><use xlink:href="#s" transform="matrix(1,0,0,1,-137.87037789300808,1083.1413615986232) translate(92.20370370370371 26.02777777777778)"/><use xlink:href="#t" transform="matrix(1,0,0,1,-137.87037789300808,1083.1413615986232) translate(172.45061728395063 26.02777777777778)"/><use xlink:href="#u" transform="matrix(1,0,0,1,-137.87037789300808,1083.1413615986232) translate(197.14197530864197 26.02777777777778)"/><path d="M18.8 606.93a6 6 0 0 1 6-6h360.37a6 6 0 0 1 6 6v56.85a6 6 0 0 1-6 6H24.8a6 6 0 0 1-6-6z" stroke="#3a414a" fill="#e3fae3"/><use xlink:href="#v" transform="matrix(1,0,0,1,30.79450430495146,612.9343241405886) translate(139.56172839506172 17.77777777777778)"/><use xlink:href="#w" transform="matrix(1,0,0,1,30.79450430495146,612.9343241405886) translate(164.2530864197531 17.77777777777778)"/><use xlink:href="#x" transform="matrix(1,0,0,1,30.79450430495146,612.9343241405886) translate(19.870370370370352 44.44444444444444)"/><path d="M84.67 727.28l-10.8 3.74-7.18 2.83-5.24 2.32-4.02 2-3.17 1.74-2.58 1.56-2.14 1.42-1.78 1.3-1.5 1.18-1.3 1.12-1.1 1.04-.67.68-.7-.7.67-.7 1.14-1.07 1.33-1.14 1.54-1.23 1.82-1.32 2.15-1.43 2.62-1.58 3.2-1.77 4.06-2 5.27-2.34 7.2-2.85 8.5-2.94h3.15zm120.8-56.5v.3l-.05.8-.08.77-.12.77-.14.76-.18.76-.2.76-.26.76-.3.76-.3.78-.38.78-.42.8-.47.8-.53.85-.6.86-.67.88-.77.93-.87.97-1 1.02-1.14 1.06-1.33 1.14-1.54 1.22-1.82 1.32-2.15 1.44-2.62 1.58-3.2 1.76-4.06 2-5.27 2.35-7.2 2.84-9.24 3.2h-3.24l1.3-.38 10.82-3.75 7.17-2.83 5.24-2.32 4-2 3.2-1.73 2.57-1.57 2.14-1.4 1.78-1.3 1.5-1.2 1.3-1.1 1.1-1.06.98-.98.84-.95.74-.9.65-.85.58-.83.52-.8.45-.77.4-.76.35-.75.3-.74.27-.73.23-.72.2-.7.17-.73.14-.72.1-.72.08-.74.05-.75v-.27z" stroke="#000" stroke-width=".05"/><path d="M205.47 670.8h-1v-.52h1z"/><path d="M205.5 670.83l-1.05-.02v-.54h1.06zm-1-.52v.46l.95.02v-.47z" stroke="#000" stroke-width=".05"/><path d="M47.05 749.8l-10.07 11.13 1.6-14.9z"/><path d="M47.88 749.64L36.32 762.4l1.84-17.12zm-10.24 9.82L46.2 750l-7.2-3.24z" stroke="#000" stroke-width=".05"/><g><use xlink:href="#y" transform="matrix(1,0,0,1,74.39018264738695,705.8074701477796) translate(0 14.222222222222223)"/><use xlink:href="#z" transform="matrix(1,0,0,1,74.39018264738695,705.8074701477796) translate(75.90123456790124 14.222222222222223)"/></g><path d="M39.8 233.75l.04.5.05.48.06.5.1.47.1.48.14.48.16.5.18.48.2.5.25.5.26.53.3.54.36.56.4.57.45.6.5.6.6.66.67.67.77.73.9.78 1.07.83 1.24.9 1.5 1 1.8 1.1 2.2 1.2 2.77 1.37 3.54 1.57 4.7 1.86 6.57 2.27 9.94 2.98 19.17 4.86 63.15 14.75 9.95 2.98 6.55 2.27 4.7 1.86 3.55 1.57 2.76 1.37 2.2 1.22 1.8 1.08 1.5 1 .22.16" stroke="#000" stroke-linejoin="round" fill="none"/><path d="M40.3 233.75l-1 .03v-.53h1z" stroke="#000" stroke-width=".05"/><path d="M204.86 304.9l-11.67-9.44 7.76-5.05z" stroke="#000"/><path d="M36.33 841.25l.02.38.05.44.07.43.08.43.1.44.12.43.14.44.18.44.2.45.2.46.25.46.28.5.33.48.35.52.4.54.48.56.53.6.6.6.7.68.83.7.96.76 1.13.83 1.36.9 1.63 1 2.02 1.1 2.53 1.26 3.23 1.42 4.3 1.7 5.9 2.04 8.74 2.63 15.2 3.85 78.02 17.38 8.75 2.62 5.9 2.05 4.3 1.7 3.22 1.42 2.53 1.26 2.02 1.1 1.65 1 .28.2" stroke="#000" stroke-linejoin="round" fill="none"/><path d="M36.83 841.25l-1 .02v-.53h1z" stroke="#000" stroke-width=".05"/><path d="M204.05 908.95L192 900l7.57-5.37z" stroke="#000"/><path d="M204.97 990.5v.17l-.04.65-.07.64-.1.63-.1.62-.16.63-.17.62-.2.63-.24.63-.28.64-.3.65-.36.67-.4.66-.43.7-.5.72-.57.75-.64.77-.73.82-.85.85-.96.9-1.13.97-1.3 1.03-1.55 1.12-1.83 1.2-2.23 1.35-2.73 1.5-3.44 1.7-4.46 1.98-6.05 2.4-8.93 3.08-16.43 4.92-55.25 15.33-8.92 3.1-6.05 2.37-4.46 1.98-3.44 1.7-2.73 1.5-2.22 1.35-1.84 1.2-1.54 1.13-1.3 1.04-.88.75" stroke="#fff" stroke-linejoin="round" fill="none"/><path d="M205.47 990.54l-1-.02v-.5h1z" stroke="#fff" stroke-width=".05" fill="#fff"/><path d="M52.63 1069.2l2.5-14.8 8.2 4.3z" stroke="#fff" fill="#fff"/><path d="M204.98 524.46v59.59" stroke="#000" fill="none"/><path d="M205.48 524.47h-1v-.5h1z" stroke="#000" stroke-width=".05"/><path d="M204.98 598.82l-4.63-14.27h9.27z" stroke="#000"/><defs><path fill="#3a414a" d="M27 0v-27h64v-190l-56 39v-29l58-41h29v221h61V0H27" id="A"/><path fill="#3a414a" d="M33 0v-38h34V0H33" id="B"/><g id="a"><use transform="matrix(0.06172839506172839,0,0,0.06172839506172839,0,0)" xlink:href="#A"/><use transform="matrix(0.06172839506172839,0,0,0.06172839506172839,12.345679012345679,0)" xlink:href="#B"/></g><path fill="#3a414a" d="M63-220v92h138v28H63V0H30v-248h175v28H63" id="C"/><path fill="#3a414a" d="M100-194c62-1 85 37 85 99 1 63-27 99-86 99S16-35 15-95c0-66 28-99 85-99zM99-20c44 1 53-31 53-75 0-43-8-75-51-75s-53 32-53 75 10 74 51 75" id="D"/><path fill="#3a414a" d="M114-163C36-179 61-72 57 0H25l-1-190h30c1 12-1 29 2 39 6-27 23-49 58-41v29" id="E"/><path fill="#3a414a" d="M177-190C167-65 218 103 67 71c-23-6-38-20-44-43l32-5c15 47 100 32 89-28v-30C133-14 115 1 83 1 29 1 15-40 15-95c0-56 16-97 71-98 29-1 48 16 59 35 1-10 0-23 2-32h30zM94-22c36 0 50-32 50-73 0-42-14-75-50-75-39 0-46 34-46 75s6 73 46 73" id="F"/><path fill="#3a414a" d="M59-47c-2 24 18 29 38 22v24C64 9 27 4 27-40v-127H5v-23h24l9-43h21v43h35v23H59v120" id="G"/><g id="b"><use transform="matrix(0.06172839506172839,0,0,0.06172839506172839,0,0)" xlink:href="#C"/><use transform="matrix(0.06172839506172839,0,0,0.06172839506172839,13.518518518518517,0)" xlink:href="#D"/><use transform="matrix(0.06172839506172839,0,0,0.06172839506172839,25.864197530864196,0)" xlink:href="#E"/><use transform="matrix(0.06172839506172839,0,0,0.06172839506172839,33.20987654320987,0)" xlink:href="#F"/><use transform="matrix(0.06172839506172839,0,0,0.06172839506172839,45.55555555555555,0)" xlink:href="#D"/><use transform="matrix(0.06172839506172839,0,0,0.06172839506172839,57.90123456790123,0)" xlink:href="#G"/></g><path fill="#3a414a" d="M30-248c87 1 191-15 191 75 0 78-77 80-158 76V0H30v-248zm33 125c57 0 124 11 124-50 0-59-68-47-124-48v98" id="H"/><path fill="#3a414a" d="M141-36C126-15 110 5 73 4 37 3 15-17 15-53c-1-64 63-63 125-63 3-35-9-54-41-54-24 1-41 7-42 31l-33-3c5-37 33-52 76-52 45 0 72 20 72 64v82c-1 20 7 32 28 27v20c-31 9-61-2-59-35zM48-53c0 20 12 33 32 33 41-3 63-29 60-74-43 2-92-5-92 41" id="I"/><path fill="#3a414a" d="M135-143c-3-34-86-38-87 0 15 53 115 12 119 90S17 21 10-45l28-5c4 36 97 45 98 0-10-56-113-15-118-90-4-57 82-63 122-42 12 7 21 19 24 35" id="J"/><path fill="#3a414a" d="M206 0h-36l-40-164L89 0H53L-1-190h32L70-26l43-164h34l41 164 42-164h31" id="K"/><path fill="#3a414a" d="M85-194c31 0 48 13 60 33l-1-100h32l1 261h-30c-2-10 0-23-3-31C134-8 116 4 85 4 32 4 16-35 15-94c0-66 23-100 70-100zm9 24c-40 0-46 34-46 75 0 40 6 74 45 74 42 0 51-32 51-76 0-42-9-74-50-73" id="L"/><g id="c"><use transform="matrix(0.06172839506172839,0,0,0.06172839506172839,0,0)" xlink:href="#H"/><use transform="matrix(0.06172839506172839,0,0,0.06172839506172839,14.814814814814813,0)" xlink:href="#I"/><use transform="matrix(0.06172839506172839,0,0,0.06172839506172839,27.160493827160494,0)" xlink:href="#J"/><use transform="matrix(0.06172839506172839,0,0,0.06172839506172839,38.27160493827161,0)" xlink:href="#J"/><use transform="matrix(0.06172839506172839,0,0,0.06172839506172839,49.38271604938272,0)" xlink:href="#K"/><use transform="matrix(0.06172839506172839,0,0,0.06172839506172839,65.37037037037038,0)" xlink:href="#D"/><use transform="matrix(0.06172839506172839,0,0,0.06172839506172839,77.71604938271606,0)" xlink:href="#E"/><use transform="matrix(0.06172839506172839,0,0,0.06172839506172839,85.06172839506175,0)" xlink:href="#L"/></g><path fill="#3a414a" d="M24-231v-30h32v30H24zM24 0v-190h32V0H24" id="M"/><path fill="#3a414a" d="M108 0H70L1-190h34L89-25l56-165h34" id="N"/><path fill="#3a414a" d="M24 0v-261h32V0H24" id="O"/><path fill="#3a414a" d="M16-82v-28h88v28H16" id="P"/><path fill="#3a414a" d="M84 4C-5 8 30-112 23-190h32v120c0 31 7 50 39 49 72-2 45-101 50-169h31l1 190h-30c-1-10 1-25-2-33-11 22-28 36-60 37" id="Q"/><path fill="#3a414a" d="M0 4l72-265h28L28 4H0" id="R"/><path fill="#3a414a" d="M100-194c63 0 86 42 84 106H49c0 40 14 67 53 68 26 1 43-12 49-29l28 8c-11 28-37 45-77 45C44 4 14-33 15-96c1-61 26-98 85-98zm52 81c6-60-76-77-97-28-3 7-6 17-6 28h103" id="S"/><path fill="#3a414a" d="M96-169c-40 0-48 33-48 73s9 75 48 75c24 0 41-14 43-38l32 2c-6 37-31 61-74 61-59 0-76-41-82-99-10-93 101-131 147-64 4 7 5 14 7 22l-32 3c-4-21-16-35-41-35" id="T"/><path fill="#3a414a" d="M115-194c55 1 70 41 70 98S169 2 115 4C84 4 66-9 55-30l1 105H24l-1-265h31l2 30c10-21 28-34 59-34zm-8 174c40 0 45-34 45-75s-6-73-45-74c-42 0-51 32-51 76 0 43 10 73 51 73" id="U"/><g id="d"><use transform="matrix(0.06172839506172839,0,0,0.06172839506172839,0,0)" xlink:href="#G"/><use transform="matrix(0.06172839506172839,0,0,0.06172839506172839,6.172839506172839,0)" xlink:href="#E"/><use transform="matrix(0.06172839506172839,0,0,0.06172839506172839,13.518518518518519,0)" xlink:href="#M"/><use transform="matrix(0.06172839506172839,0,0,0.06172839506172839,18.395061728395063,0)" xlink:href="#N"/><use transform="matrix(0.06172839506172839,0,0,0.06172839506172839,29.506172839506174,0)" xlink:href="#M"/><use transform="matrix(0.06172839506172839,0,0,0.06172839506172839,34.382716049382715,0)" xlink:href="#I"/><use transform="matrix(0.06172839506172839,0,0,0.06172839506172839,46.72839506172839,0)" xlink:href="#O"/><use transform="matrix(0.06172839506172839,0,0,0.06172839506172839,51.60493827160494,0)" xlink:href="#P"/><use transform="matrix(0.06172839506172839,0,0,0.06172839506172839,58.95061728395061,0)" xlink:href="#Q"/><use transform="matrix(0.06172839506172839,0,0,0.06172839506172839,71.29629629629629,0)" xlink:href="#M"/><use transform="matrix(0.06172839506172839,0,0,0.06172839506172839,76.17283950617283,0)" xlink:href="#R"/><use transform="matrix(0.06172839506172839,0,0,0.06172839506172839,82.34567901234567,0)" xlink:href="#E"/><use transform="matrix(0.06172839506172839,0,0,0.06172839506172839,89.69135802469135,0)" xlink:href="#S"/><use transform="matrix(0.06172839506172839,0,0,0.06172839506172839,102.03703703703704,0)" xlink:href="#T"/><use transform="matrix(0.06172839506172839,0,0,0.06172839506172839,113.14814814814815,0)" xlink:href="#D"/><use transform="matrix(0.06172839506172839,0,0,0.06172839506172839,125.49382716049384,0)" xlink:href="#N"/><use transform="matrix(0.06172839506172839,0,0,0.06172839506172839,136.60493827160494,0)" xlink:href="#S"/><use transform="matrix(0.06172839506172839,0,0,0.06172839506172839,148.9506172839506,0)" xlink:href="#E"/><use transform="matrix(0.06172839506172839,0,0,0.06172839506172839,156.29629629629628,0)" xlink:href="#U"/><use transform="matrix(0.06172839506172839,0,0,0.06172839506172839,168.64197530864195,0)" xlink:href="#I"/><use transform="matrix(0.06172839506172839,0,0,0.06172839506172839,180.98765432098762,0)" xlink:href="#J"/><use transform="matrix(0.06172839506172839,0,0,0.06172839506172839,192.09876543209873,0)" xlink:href="#J"/><use transform="matrix(0.06172839506172839,0,0,0.06172839506172839,203.20987654320984,0)" xlink:href="#K"/><use transform="matrix(0.06172839506172839,0,0,0.06172839506172839,219.1975308641975,0)" xlink:href="#D"/><use transform="matrix(0.06172839506172839,0,0,0.06172839506172839,231.54320987654316,0)" xlink:href="#E"/><use transform="matrix(0.06172839506172839,0,0,0.06172839506172839,238.88888888888883,0)" xlink:href="#L"/></g><path fill="#3a414a" d="M101-251c82-7 93 87 43 132L82-64C71-53 59-42 53-27h129V0H18c2-99 128-94 128-182 0-28-16-43-45-43s-46 15-49 41l-32-3c6-41 34-60 81-64" id="V"/><g id="e"><use transform="matrix(0.06172839506172839,0,0,0.06172839506172839,0,0)" xlink:href="#V"/><use transform="matrix(0.06172839506172839,0,0,0.06172839506172839,12.345679012345679,0)" xlink:href="#B"/></g><path fill="#3a414a" d="M140-251c81 0 123 46 123 126C263-46 219 4 140 4 59 4 17-45 17-125s42-126 123-126zm0 227c63 0 89-41 89-101s-29-99-89-99c-61 0-89 39-89 99S79-25 140-24" id="W"/><path fill="#3a414a" d="M185-189c-5-48-123-54-124 2 14 75 158 14 163 119 3 78-121 87-175 55-17-10-28-26-33-46l33-7c5 56 141 63 141-1 0-78-155-14-162-118-5-82 145-84 179-34 5 7 8 16 11 25" id="X"/><path fill="#3a414a" d="M127-220V0H93v-220H8v-28h204v28h-85" id="Y"/><g id="f"><use transform="matrix(0.06172839506172839,0,0,0.06172839506172839,0,0)" xlink:href="#H"/><use transform="matrix(0.06172839506172839,0,0,0.06172839506172839,14.814814814814813,0)" xlink:href="#W"/><use transform="matrix(0.06172839506172839,0,0,0.06172839506172839,32.09876543209876,0)" xlink:href="#X"/><use transform="matrix(0.06172839506172839,0,0,0.06172839506172839,46.91358024691357,0)" xlink:href="#Y"/></g><path fill="#3a414a" d="M106-169C34-169 62-67 57 0H25v-261h32l-1 103c12-21 28-36 61-36 89 0 53 116 60 194h-32v-121c2-32-8-49-39-48" id="Z"/><g id="g"><use transform="matrix(0.06172839506172839,0,0,0.06172839506172839,0,0)" xlink:href="#G"/><use transform="matrix(0.06172839506172839,0,0,0.06172839506172839,6.172839506172839,0)" xlink:href="#E"/><use transform="matrix(0.06172839506172839,0,0,0.06172839506172839,13.518518518518519,0)" xlink:href="#M"/><use transform="matrix(0.06172839506172839,0,0,0.06172839506172839,18.395061728395063,0)" xlink:href="#N"/><use transform="matrix(0.06172839506172839,0,0,0.06172839506172839,29.506172839506174,0)" xlink:href="#M"/><use transform="matrix(0.06172839506172839,0,0,0.06172839506172839,34.382716049382715,0)" xlink:href="#I"/><use transform="matrix(0.06172839506172839,0,0,0.06172839506172839,46.72839506172839,0)" xlink:href="#O"/><use transform="matrix(0.06172839506172839,0,0,0.06172839506172839,51.60493827160494,0)" xlink:href="#P"/><use transform="matrix(0.06172839506172839,0,0,0.06172839506172839,58.95061728395061,0)" xlink:href="#I"/><use transform="matrix(0.06172839506172839,0,0,0.06172839506172839,71.29629629629629,0)" xlink:href="#U"/><use transform="matrix(0.06172839506172839,0,0,0.06172839506172839,83.64197530864197,0)" xlink:href="#M"/><use transform="matrix(0.06172839506172839,0,0,0.06172839506172839,88.51851851851852,0)" xlink:href="#R"/><use transform="matrix(0.06172839506172839,0,0,0.06172839506172839,94.69135802469135,0)" xlink:href="#I"/><use transform="matrix(0.06172839506172839,0,0,0.06172839506172839,107.03703703703704,0)" xlink:href="#Q"/><use transform="matrix(0.06172839506172839,0,0,0.06172839506172839,119.38271604938272,0)" xlink:href="#G"/><use transform="matrix(0.06172839506172839,0,0,0.06172839506172839,125.55555555555556,0)" xlink:href="#Z"/><use transform="matrix(0.06172839506172839,0,0,0.06172839506172839,137.90123456790124,0)" xlink:href="#R"/><use transform="matrix(0.06172839506172839,0,0,0.06172839506172839,144.07407407407408,0)" xlink:href="#U"/><use transform="matrix(0.06172839506172839,0,0,0.06172839506172839,156.41975308641975,0)" xlink:href="#I"/><use transform="matrix(0.06172839506172839,0,0,0.06172839506172839,168.76543209876542,0)" xlink:href="#J"/><use transform="matrix(0.06172839506172839,0,0,0.06172839506172839,179.87654320987653,0)" xlink:href="#J"/><use transform="matrix(0.06172839506172839,0,0,0.06172839506172839,190.98765432098764,0)" xlink:href="#K"/><use transform="matrix(0.06172839506172839,0,0,0.06172839506172839,206.9753086419753,0)" xlink:href="#D"/><use transform="matrix(0.06172839506172839,0,0,0.06172839506172839,219.32098765432096,0)" xlink:href="#E"/><use transform="matrix(0.06172839506172839,0,0,0.06172839506172839,226.66666666666663,0)" xlink:href="#L"/></g><path fill="#3a414a" d="M54-142c48-35 137-8 131 61C196 18 31 33 14-55l32-4c7 23 22 37 52 37 35-1 51-22 54-58 4-55-73-65-99-34H22l8-134h141v27H59" id="aa"/><g id="h"><use transform="matrix(0.06172839506172839,0,0,0.06172839506172839,0,0)" xlink:href="#aa"/><use transform="matrix(0.06172839506172839,0,0,0.06172839506172839,12.345679012345679,0)" xlink:href="#B"/></g><path fill="#3a414a" d="M233-177c-1 41-23 64-60 70L243 0h-38l-65-103H63V0H30v-248c88 3 205-21 203 71zM63-129c60-2 137 13 137-47 0-61-80-42-137-45v92" id="ab"/><g id="i"><use transform="matrix(0.06172839506172839,0,0,0.06172839506172839,0,0)" xlink:href="#ab"/><use transform="matrix(0.06172839506172839,0,0,0.06172839506172839,15.987654320987653,0)" xlink:href="#S"/><use transform="matrix(0.06172839506172839,0,0,0.06172839506172839,28.333333333333332,0)" xlink:href="#J"/><use transform="matrix(0.06172839506172839,0,0,0.06172839506172839,39.44444444444444,0)" xlink:href="#S"/><use transform="matrix(0.06172839506172839,0,0,0.06172839506172839,51.79012345679012,0)" xlink:href="#G"/></g><g id="j"><use transform="matrix(0.06172839506172839,0,0,0.06172839506172839,0,0)" xlink:href="#G"/><use transform="matrix(0.06172839506172839,0,0,0.06172839506172839,6.172839506172839,0)" xlink:href="#E"/><use transform="matrix(0.06172839506172839,0,0,0.06172839506172839,13.518518518518519,0)" xlink:href="#M"/><use transform="matrix(0.06172839506172839,0,0,0.06172839506172839,18.395061728395063,0)" xlink:href="#N"/><use transform="matrix(0.06172839506172839,0,0,0.06172839506172839,29.506172839506174,0)" xlink:href="#M"/><use transform="matrix(0.06172839506172839,0,0,0.06172839506172839,34.382716049382715,0)" xlink:href="#I"/><use transform="matrix(0.06172839506172839,0,0,0.06172839506172839,46.72839506172839,0)" xlink:href="#O"/><use transform="matrix(0.06172839506172839,0,0,0.06172839506172839,51.60493827160494,0)" xlink:href="#P"/><use transform="matrix(0.06172839506172839,0,0,0.06172839506172839,58.95061728395061,0)" xlink:href="#Q"/><use transform="matrix(0.06172839506172839,0,0,0.06172839506172839,71.29629629629629,0)" xlink:href="#M"/><use transform="matrix(0.06172839506172839,0,0,0.06172839506172839,76.17283950617283,0)" xlink:href="#R"/><use transform="matrix(0.06172839506172839,0,0,0.06172839506172839,82.34567901234567,0)" xlink:href="#E"/><use transform="matrix(0.06172839506172839,0,0,0.06172839506172839,89.69135802469135,0)" xlink:href="#S"/><use transform="matrix(0.06172839506172839,0,0,0.06172839506172839,102.03703703703704,0)" xlink:href="#J"/><use transform="matrix(0.06172839506172839,0,0,0.06172839506172839,113.14814814814815,0)" xlink:href="#S"/><use transform="matrix(0.06172839506172839,0,0,0.06172839506172839,125.49382716049384,0)" xlink:href="#G"/><use transform="matrix(0.06172839506172839,0,0,0.06172839506172839,131.66666666666669,0)" xlink:href="#U"/><use transform="matrix(0.06172839506172839,0,0,0.06172839506172839,144.01234567901236,0)" xlink:href="#I"/><use transform="matrix(0.06172839506172839,0,0,0.06172839506172839,156.35802469135803,0)" xlink:href="#J"/><use transform="matrix(0.06172839506172839,0,0,0.06172839506172839,167.46913580246914,0)" xlink:href="#J"/><use transform="matrix(0.06172839506172839,0,0,0.06172839506172839,178.58024691358025,0)" xlink:href="#K"/><use transform="matrix(0.06172839506172839,0,0,0.06172839506172839,194.5679012345679,0)" xlink:href="#D"/><use transform="matrix(0.06172839506172839,0,0,0.06172839506172839,206.91358024691357,0)" xlink:href="#E"/><use transform="matrix(0.06172839506172839,0,0,0.06172839506172839,214.25925925925924,0)" xlink:href="#L"/></g><path fill="#3a414a" d="M126-127c33 6 58 20 58 59 0 88-139 92-164 29-3-8-5-16-6-25l32-3c6 27 21 44 54 44 32 0 52-15 52-46 0-38-36-46-79-43v-28c39 1 72-4 72-42 0-27-17-43-46-43-28 0-47 15-49 41l-32-3c6-42 35-63 81-64 48-1 79 21 79 65 0 36-21 52-52 59" id="ac"/><g id="k"><use transform="matrix(0.06172839506172839,0,0,0.06172839506172839,0,0)" xlink:href="#ac"/><use transform="matrix(0.06172839506172839,0,0,0.06172839506172839,12.345679012345679,0)" xlink:href="#B"/></g><path fill="#3a414a" d="M30 0v-248h187v28H63v79h144v27H63v87h162V0H30" id="ad"/><path fill="#3a414a" d="M210-169c-67 3-38 105-44 169h-31v-121c0-29-5-50-35-48C34-165 62-65 56 0H25l-1-190h30c1 10-1 24 2 32 10-44 99-50 107 0 11-21 27-35 58-36 85-2 47 119 55 194h-31v-121c0-29-5-49-35-48" id="ae"/><g id="l"><use transform="matrix(0.06172839506172839,0,0,0.06172839506172839,0,0)" xlink:href="#ad"/><use transform="matrix(0.06172839506172839,0,0,0.06172839506172839,14.814814814814813,0)" xlink:href="#ae"/><use transform="matrix(0.06172839506172839,0,0,0.06172839506172839,33.2716049382716,0)" xlink:href="#I"/><use transform="matrix(0.06172839506172839,0,0,0.06172839506172839,45.61728395061728,0)" xlink:href="#M"/><use transform="matrix(0.06172839506172839,0,0,0.06172839506172839,50.49382716049382,0)" xlink:href="#O"/></g><path fill="#3a414a" d="M143 0L79-87 56-68V0H24v-261h32v163l83-92h37l-77 82L181 0h-38" id="af"/><path fill="#3a414a" d="M117-194c89-4 53 116 60 194h-32v-121c0-31-8-49-39-48C34-167 62-67 57 0H25l-1-190h30c1 10-1 24 2 32 11-22 29-35 61-36" id="ag"/><g id="m"><use transform="matrix(0.06172839506172839,0,0,0.06172839506172839,0,0)" xlink:href="#Y"/><use transform="matrix(0.06172839506172839,0,0,0.06172839506172839,11.049382716049381,0)" xlink:href="#D"/><use transform="matrix(0.06172839506172839,0,0,0.06172839506172839,23.39506172839506,0)" xlink:href="#af"/><use transform="matrix(0.06172839506172839,0,0,0.06172839506172839,34.50617283950617,0)" xlink:href="#S"/><use transform="matrix(0.06172839506172839,0,0,0.06172839506172839,46.85185185185185,0)" xlink:href="#ag"/></g><g id="n"><use transform="matrix(0.06172839506172839,0,0,0.06172839506172839,0,0)" xlink:href="#G"/><use transform="matrix(0.06172839506172839,0,0,0.06172839506172839,6.172839506172839,0)" xlink:href="#D"/></g><path fill="#3a414a" d="M232-93c-1 65-40 97-104 97C67 4 28-28 28-90v-158h33c8 89-33 224 67 224 102 0 64-133 71-224h33v155" id="ah"/><g id="o"><use transform="matrix(0.06172839506172839,0,0,0.06172839506172839,0,0)" xlink:href="#ah"/><use transform="matrix(0.06172839506172839,0,0,0.06172839506172839,15.987654320987653,0)" xlink:href="#J"/><use transform="matrix(0.06172839506172839,0,0,0.06172839506172839,27.098765432098766,0)" xlink:href="#S"/><use transform="matrix(0.06172839506172839,0,0,0.06172839506172839,39.44444444444444,0)" xlink:href="#E"/></g><path fill="#3a414a" d="M110-160c48 1 74 30 74 79 0 53-28 85-80 85-65 0-83-55-86-122-5-90 50-162 133-122 14 7 22 21 27 39l-31 6c-5-40-67-38-82-6-9 19-15 44-15 74 11-20 30-34 60-33zm-7 138c34 0 49-23 49-58s-16-56-50-56c-29 0-50 16-49 49 1 36 15 65 50 65" id="ai"/><g id="p"><use transform="matrix(0.06172839506172839,0,0,0.06172839506172839,0,0)" xlink:href="#ai"/><use transform="matrix(0.06172839506172839,0,0,0.06172839506172839,12.345679012345679,0)" xlink:href="#B"/></g><g id="q"><use transform="matrix(0.06172839506172839,0,0,0.06172839506172839,0,0)" xlink:href="#H"/><use transform="matrix(0.06172839506172839,0,0,0.06172839506172839,14.814814814814813,0)" xlink:href="#ah"/><use transform="matrix(0.06172839506172839,0,0,0.06172839506172839,30.80246913580247,0)" xlink:href="#Y"/></g><path fill="#3a414a" d="M64 0c3-98 48-159 88-221H18v-27h164v26C143-157 98-101 97 0H64" id="aj"/><g id="r"><use transform="matrix(0.06172839506172839,0,0,0.06172839506172839,0,0)" xlink:href="#aj"/><use transform="matrix(0.06172839506172839,0,0,0.06172839506172839,12.345679012345679,0)" xlink:href="#B"/></g><path fill="#3a414a" d="M30 0v-248h33v221h125V0H30" id="ak"/><g id="s"><use transform="matrix(0.06172839506172839,0,0,0.06172839506172839,0,0)" xlink:href="#ak"/><use transform="matrix(0.06172839506172839,0,0,0.06172839506172839,12.345679012345679,0)" xlink:href="#D"/><use transform="matrix(0.06172839506172839,0,0,0.06172839506172839,24.691358024691358,0)" xlink:href="#F"/><use transform="matrix(0.06172839506172839,0,0,0.06172839506172839,37.03703703703704,0)" xlink:href="#F"/><use transform="matrix(0.06172839506172839,0,0,0.06172839506172839,49.382716049382715,0)" xlink:href="#S"/><use transform="matrix(0.06172839506172839,0,0,0.06172839506172839,61.72839506172839,0)" xlink:href="#L"/></g><path fill="#3a414a" d="M33 0v-248h34V0H33" id="al"/><g id="t"><use transform="matrix(0.06172839506172839,0,0,0.06172839506172839,0,0)" xlink:href="#al"/><use transform="matrix(0.06172839506172839,0,0,0.06172839506172839,6.172839506172839,0)" xlink:href="#ag"/></g><g id="u"><use transform="matrix(0.06172839506172839,0,0,0.06172839506172839,0,0)" xlink:href="#G"/><use transform="matrix(0.06172839506172839,0,0,0.06172839506172839,6.172839506172839,0)" xlink:href="#E"/><use transform="matrix(0.06172839506172839,0,0,0.06172839506172839,13.518518518518519,0)" xlink:href="#M"/><use transform="matrix(0.06172839506172839,0,0,0.06172839506172839,18.395061728395063,0)" xlink:href="#N"/><use transform="matrix(0.06172839506172839,0,0,0.06172839506172839,29.506172839506174,0)" xlink:href="#M"/><use transform="matrix(0.06172839506172839,0,0,0.06172839506172839,34.382716049382715,0)" xlink:href="#I"/><use transform="matrix(0.06172839506172839,0,0,0.06172839506172839,46.72839506172839,0)" xlink:href="#O"/><use transform="matrix(0.06172839506172839,0,0,0.06172839506172839,51.60493827160494,0)" xlink:href="#P"/><use transform="matrix(0.06172839506172839,0,0,0.06172839506172839,58.95061728395061,0)" xlink:href="#Q"/><use transform="matrix(0.06172839506172839,0,0,0.06172839506172839,71.29629629629629,0)" xlink:href="#M"/><use transform="matrix(0.06172839506172839,0,0,0.06172839506172839,76.17283950617283,0)" xlink:href="#R"/></g><path fill="#3a414a" d="M155-56V0h-30v-56H8v-25l114-167h33v167h35v25h-35zm-30-156c-27 46-58 90-88 131h88v-131" id="am"/><g id="v"><use transform="matrix(0.06172839506172839,0,0,0.06172839506172839,0,0)" xlink:href="#am"/><use transform="matrix(0.06172839506172839,0,0,0.06172839506172839,12.345679012345679,0)" xlink:href="#B"/></g><path fill="#3a414a" d="M143 4C61 4 22-44 18-125c-5-107 100-154 193-111 17 8 29 25 37 43l-32 9c-13-25-37-40-76-40-61 0-88 39-88 99 0 61 29 100 91 101 35 0 62-11 79-27v-45h-74v-28h105v86C228-13 192 4 143 4" id="an"/><g id="w"><use transform="matrix(0.06172839506172839,0,0,0.06172839506172839,0,0)" xlink:href="#an"/><use transform="matrix(0.06172839506172839,0,0,0.06172839506172839,17.28395061728395,0)" xlink:href="#ad"/><use transform="matrix(0.06172839506172839,0,0,0.06172839506172839,32.09876543209876,0)" xlink:href="#Y"/></g><path fill="#3a414a" d="M30-248c118-7 216 8 213 122C240-48 200 0 122 0H30v-248zM63-27c89 8 146-16 146-99s-60-101-146-95v194" id="ao"/><g id="x"><use transform="matrix(0.06172839506172839,0,0,0.06172839506172839,0,0)" xlink:href="#G"/><use transform="matrix(0.06172839506172839,0,0,0.06172839506172839,6.172839506172839,0)" xlink:href="#E"/><use transform="matrix(0.06172839506172839,0,0,0.06172839506172839,13.518518518518519,0)" xlink:href="#M"/><use transform="matrix(0.06172839506172839,0,0,0.06172839506172839,18.395061728395063,0)" xlink:href="#N"/><use transform="matrix(0.06172839506172839,0,0,0.06172839506172839,29.506172839506174,0)" xlink:href="#M"/><use transform="matrix(0.06172839506172839,0,0,0.06172839506172839,34.382716049382715,0)" xlink:href="#I"/><use transform="matrix(0.06172839506172839,0,0,0.06172839506172839,46.72839506172839,0)" xlink:href="#O"/><use transform="matrix(0.06172839506172839,0,0,0.06172839506172839,51.60493827160494,0)" xlink:href="#P"/><use transform="matrix(0.06172839506172839,0,0,0.06172839506172839,58.95061728395061,0)" xlink:href="#I"/><use transform="matrix(0.06172839506172839,0,0,0.06172839506172839,71.29629629629629,0)" xlink:href="#U"/><use transform="matrix(0.06172839506172839,0,0,0.06172839506172839,83.64197530864197,0)" xlink:href="#M"/><use transform="matrix(0.06172839506172839,0,0,0.06172839506172839,88.51851851851852,0)" xlink:href="#R"/><use transform="matrix(0.06172839506172839,0,0,0.06172839506172839,94.69135802469135,0)" xlink:href="#I"/><use transform="matrix(0.06172839506172839,0,0,0.06172839506172839,107.03703703703704,0)" xlink:href="#Q"/><use transform="matrix(0.06172839506172839,0,0,0.06172839506172839,119.38271604938272,0)" xlink:href="#G"/><use transform="matrix(0.06172839506172839,0,0,0.06172839506172839,125.55555555555556,0)" xlink:href="#Z"/><use transform="matrix(0.06172839506172839,0,0,0.06172839506172839,137.90123456790124,0)" xlink:href="#R"/><use transform="matrix(0.06172839506172839,0,0,0.06172839506172839,144.07407407407408,0)" xlink:href="#U"/><use transform="matrix(0.06172839506172839,0,0,0.06172839506172839,156.41975308641975,0)" xlink:href="#I"/><use transform="matrix(0.06172839506172839,0,0,0.06172839506172839,168.76543209876542,0)" xlink:href="#J"/><use transform="matrix(0.06172839506172839,0,0,0.06172839506172839,179.87654320987653,0)" xlink:href="#J"/><use transform="matrix(0.06172839506172839,0,0,0.06172839506172839,190.98765432098764,0)" xlink:href="#K"/><use transform="matrix(0.06172839506172839,0,0,0.06172839506172839,206.9753086419753,0)" xlink:href="#D"/><use transform="matrix(0.06172839506172839,0,0,0.06172839506172839,219.32098765432096,0)" xlink:href="#E"/><use transform="matrix(0.06172839506172839,0,0,0.06172839506172839,226.66666666666663,0)" xlink:href="#L"/><use transform="matrix(0.06172839506172839,0,0,0.06172839506172839,239.0123456790123,0)" xlink:href="#R"/><use transform="matrix(0.06172839506172839,0,0,0.06172839506172839,245.18518518518513,0)" xlink:href="#S"/><use transform="matrix(0.06172839506172839,0,0,0.06172839506172839,257.53086419753083,0)" xlink:href="#L"/><use transform="matrix(0.06172839506172839,0,0,0.06172839506172839,269.8765432098765,0)" xlink:href="#M"/><use transform="matrix(0.06172839506172839,0,0,0.06172839506172839,274.75308641975306,0)" xlink:href="#G"/><use transform="matrix(0.06172839506172839,0,0,0.06172839506172839,280.9259259259259,0)" xlink:href="#B"/><use transform="matrix(0.06172839506172839,0,0,0.06172839506172839,287.0987654320988,0)" xlink:href="#al"/><use transform="matrix(0.06172839506172839,0,0,0.06172839506172839,293.27160493827165,0)" xlink:href="#ao"/></g><path d="M240-174c0 40-23 61-54 70L253 0h-59l-57-94H76V0H24v-248c93 4 217-23 216 74zM76-134c48-2 112 12 112-38 0-48-66-32-112-35v73" id="ap"/><path d="M185-48c-13 30-37 53-82 52C43 2 14-33 14-96s30-98 90-98c62 0 83 45 84 108H66c0 31 8 55 39 56 18 0 30-7 34-22zm-45-69c5-46-57-63-70-21-2 6-4 13-4 21h74" id="aq"/><path d="M88-194c31-1 46 15 58 34l-1-101h50l1 261h-48c-2-10 0-23-3-31C134-8 116 4 84 4 32 4 16-41 15-95c0-56 19-97 73-99zm17 164c33 0 40-30 41-66 1-37-9-64-41-64s-38 30-39 65c0 43 13 65 39 65" id="ar"/><path d="M25-224v-37h50v37H25zM25 0v-190h50V0H25" id="as"/><path d="M135-150c-39-12-60 13-60 57V0H25l-1-190h47c2 13-1 29 3 40 6-28 27-53 61-41v41" id="at"/><path d="M190-63c-7 42-38 67-86 67-59 0-84-38-90-98-12-110 154-137 174-36l-49 2c-2-19-15-32-35-32-30 0-35 28-38 64-6 74 65 87 74 30" id="au"/><path d="M115-3C79 11 28 4 28-45v-112H4v-33h27l15-45h31v45h36v33H77v99c-1 23 16 31 38 25v30" id="av"/><g id="y"><use transform="matrix(0.04938271604938272,0,0,0.04938271604938272,0,0)" xlink:href="#ap"/><use transform="matrix(0.04938271604938272,0,0,0.04938271604938272,12.790123456790125,0)" xlink:href="#aq"/><use transform="matrix(0.04938271604938272,0,0,0.04938271604938272,22.66666666666667,0)" xlink:href="#ar"/><use transform="matrix(0.04938271604938272,0,0,0.04938271604938272,33.48148148148149,0)" xlink:href="#as"/><use transform="matrix(0.04938271604938272,0,0,0.04938271604938272,38.41975308641976,0)" xlink:href="#at"/><use transform="matrix(0.04938271604938272,0,0,0.04938271604938272,45.33333333333334,0)" xlink:href="#aq"/><use transform="matrix(0.04938271604938272,0,0,0.04938271604938272,55.209876543209894,0)" xlink:href="#au"/><use transform="matrix(0.04938271604938272,0,0,0.04938271604938272,65.08641975308643,0)" xlink:href="#av"/></g><path d="M110-194c64 0 96 36 96 99 0 64-35 99-97 99-61 0-95-36-95-99 0-62 34-99 96-99zm-1 164c35 0 45-28 45-65 0-40-10-65-43-65-34 0-45 26-45 65 0 36 10 65 43 65" id="aw"/><g id="z"><use transform="matrix(0.04938271604938272,0,0,0.04938271604938272,0,0)" xlink:href="#av"/><use transform="matrix(0.04938271604938272,0,0,0.04938271604938272,5.8765432098765435,0)" xlink:href="#aw"/></g></defs></g></svg>